<mxfile host="app.diagrams.net" agent="Mozilla/5.0 (Macintosh; Intel Mac OS X 10_15_7) AppleWebKit/537.36 (KHTML, like Gecko) Chrome/134.0.0.0 Safari/537.36" version="26.2.5">
  <diagram name="Page-1" id="f1b7ffb7-ca1e-a977-7cf5-a751b3c06c05">
    <mxGraphModel dx="676" dy="472" grid="1" gridSize="10" guides="1" tooltips="1" connect="0" arrows="1" fold="1" page="1" pageScale="1" pageWidth="826" pageHeight="1169" background="light-dark(#FFFFFF,#0000FF)" math="0" shadow="0">
      <root>
        <mxCell id="0" />
        <mxCell id="1" parent="0" />
        <mxCell id="HzonHfU0Ug7TIeuip-Wf-106" value="" style="rounded=0;whiteSpace=wrap;html=1;" parent="1" vertex="1">
          <mxGeometry x="580" y="580" width="120" height="35" as="geometry" />
        </mxCell>
        <mxCell id="2" value="401 Arrow Ln, Chief City, NE 76867" style="text;spacingTop=-5;fontSize=18;fontStyle=0;imageAlign=center;imageAspect=0;" parent="1" vertex="1">
          <mxGeometry x="280" y="10" width="213" height="20" as="geometry" />
        </mxCell>
        <mxCell id="3" value="" style="line;strokeWidth=1" parent="1" vertex="1">
          <mxGeometry x="20" y="60" width="780" height="10" as="geometry" />
        </mxCell>
        <mxCell id="FS3tA_BJrZz6G8eE-86G-61" value="Employment" style="text;strokeColor=none;align=center;fillColor=none;html=1;verticalAlign=middle;whiteSpace=wrap;rounded=0;" parent="1" vertex="1">
          <mxGeometry x="339" y="40" width="60" height="30" as="geometry" />
        </mxCell>
        <mxCell id="FS3tA_BJrZz6G8eE-86G-62" value="Job Board" style="text;strokeColor=none;align=center;fillColor=none;html=1;verticalAlign=middle;whiteSpace=wrap;rounded=0;" parent="1" vertex="1">
          <mxGeometry x="439" y="40" width="60" height="30" as="geometry" />
        </mxCell>
        <mxCell id="HzonHfU0Ug7TIeuip-Wf-62" value="" style="whiteSpace=wrap;html=1;aspect=fixed;" parent="1" vertex="1">
          <mxGeometry x="329" y="90" width="153" height="153" as="geometry" />
        </mxCell>
        <object label="Company Logo" placeholders="1" id="HzonHfU0Ug7TIeuip-Wf-64">
          <mxCell style="text;html=1;align=center;verticalAlign=middle;whiteSpace=wrap;rounded=0;" parent="1" vertex="1">
            <mxGeometry x="350" y="130" width="120" height="70" as="geometry" />
          </mxCell>
        </object>
        <mxCell id="HzonHfU0Ug7TIeuip-Wf-65" value="Sioux Extrusions" style="text;html=1;align=center;verticalAlign=middle;whiteSpace=wrap;rounded=0;fontSize=26;" parent="1" vertex="1">
          <mxGeometry x="290" y="266" width="240" height="30" as="geometry" />
        </mxCell>
        <mxCell id="HzonHfU0Ug7TIeuip-Wf-66" value="Leading the Extrusions Industy since 1971" style="text;html=1;align=center;verticalAlign=middle;whiteSpace=wrap;rounded=0;fontSize=18;" parent="1" vertex="1">
          <mxGeometry x="208" y="320" width="410" height="30" as="geometry" />
        </mxCell>
        <mxCell id="HzonHfU0Ug7TIeuip-Wf-68" style="edgeStyle=orthogonalEdgeStyle;rounded=0;orthogonalLoop=1;jettySize=auto;html=1;exitX=0.5;exitY=1;exitDx=0;exitDy=0;" parent="1" source="HzonHfU0Ug7TIeuip-Wf-66" target="HzonHfU0Ug7TIeuip-Wf-66" edge="1">
          <mxGeometry relative="1" as="geometry" />
        </mxCell>
        <mxCell id="HzonHfU0Ug7TIeuip-Wf-69" value="Call Us! 428-224-8256" style="text;html=1;align=center;verticalAlign=middle;whiteSpace=wrap;rounded=0;fontSize=20;" parent="1" vertex="1">
          <mxGeometry x="290" y="370" width="264.5" height="30" as="geometry" />
        </mxCell>
        <mxCell id="HzonHfU0Ug7TIeuip-Wf-70" value="" style="swimlane;startSize=0;" parent="1" vertex="1">
          <mxGeometry x="43" y="420" width="770" height="50" as="geometry" />
        </mxCell>
        <mxCell id="HzonHfU0Ug7TIeuip-Wf-73" value="Home" style="text;html=1;align=center;verticalAlign=middle;whiteSpace=wrap;rounded=0;fontSize=17;" parent="HzonHfU0Ug7TIeuip-Wf-70" vertex="1">
          <mxGeometry x="-13" y="-10" width="120" height="60" as="geometry" />
        </mxCell>
        <mxCell id="HzonHfU0Ug7TIeuip-Wf-74" value="News" style="text;html=1;align=center;verticalAlign=middle;whiteSpace=wrap;rounded=0;fontSize=17;" parent="HzonHfU0Ug7TIeuip-Wf-70" vertex="1">
          <mxGeometry x="57" y="-10" width="120" height="60" as="geometry" />
        </mxCell>
        <mxCell id="HzonHfU0Ug7TIeuip-Wf-75" value="About" style="text;html=1;align=center;verticalAlign=middle;whiteSpace=wrap;rounded=0;fontSize=17;" parent="HzonHfU0Ug7TIeuip-Wf-70" vertex="1">
          <mxGeometry x="127" y="-10" width="120" height="60" as="geometry" />
        </mxCell>
        <mxCell id="HzonHfU0Ug7TIeuip-Wf-76" value="Extrusions" style="text;html=1;align=center;verticalAlign=middle;whiteSpace=wrap;rounded=0;fontSize=17;" parent="HzonHfU0Ug7TIeuip-Wf-70" vertex="1">
          <mxGeometry x="217" y="-10" width="120" height="60" as="geometry" />
        </mxCell>
        <mxCell id="HzonHfU0Ug7TIeuip-Wf-82" value="Anodizing" style="text;html=1;align=center;verticalAlign=middle;whiteSpace=wrap;rounded=0;fontSize=17;" parent="HzonHfU0Ug7TIeuip-Wf-70" vertex="1">
          <mxGeometry x="323" y="-10" width="120" height="60" as="geometry" />
        </mxCell>
        <mxCell id="HzonHfU0Ug7TIeuip-Wf-85" value="Finish" style="text;html=1;align=center;verticalAlign=middle;whiteSpace=wrap;rounded=0;fontSize=17;" parent="HzonHfU0Ug7TIeuip-Wf-70" vertex="1">
          <mxGeometry x="407" y="-10" width="120" height="60" as="geometry" />
        </mxCell>
        <mxCell id="HzonHfU0Ug7TIeuip-Wf-95" value="Fabrication" style="text;html=1;align=center;verticalAlign=middle;whiteSpace=wrap;rounded=0;fontSize=17;" parent="HzonHfU0Ug7TIeuip-Wf-70" vertex="1">
          <mxGeometry x="487" y="-10" width="120" height="60" as="geometry" />
        </mxCell>
        <mxCell id="HzonHfU0Ug7TIeuip-Wf-96" value="Contact" style="text;html=1;align=center;verticalAlign=middle;whiteSpace=wrap;rounded=0;fontSize=17;" parent="HzonHfU0Ug7TIeuip-Wf-70" vertex="1">
          <mxGeometry x="577" y="-10" width="120" height="60" as="geometry" />
        </mxCell>
        <mxCell id="HzonHfU0Ug7TIeuip-Wf-97" value="" style="rounded=0;whiteSpace=wrap;html=1;" parent="1" vertex="1">
          <mxGeometry x="20" y="480" width="330" height="140" as="geometry" />
        </mxCell>
        <mxCell id="HzonHfU0Ug7TIeuip-Wf-98" value="Image" style="text;html=1;align=center;verticalAlign=middle;whiteSpace=wrap;rounded=0;" parent="1" vertex="1">
          <mxGeometry x="158" y="500" width="60" height="30" as="geometry" />
        </mxCell>
        <mxCell id="HzonHfU0Ug7TIeuip-Wf-99" value="" style="rounded=0;whiteSpace=wrap;html=1;" parent="1" vertex="1">
          <mxGeometry x="148" y="580" width="80" height="30" as="geometry" />
        </mxCell>
        <mxCell id="HzonHfU0Ug7TIeuip-Wf-100" value="More Info" style="text;html=1;align=center;verticalAlign=middle;whiteSpace=wrap;rounded=0;" parent="1" vertex="1">
          <mxGeometry x="155" y="585" width="60" height="30" as="geometry" />
        </mxCell>
        <mxCell id="HzonHfU0Ug7TIeuip-Wf-102" value="Aluminum Price" style="text;html=1;align=center;verticalAlign=middle;whiteSpace=wrap;rounded=0;fontSize=17;" parent="1" vertex="1">
          <mxGeometry x="565" y="490" width="140" height="30" as="geometry" />
        </mxCell>
        <mxCell id="HzonHfU0Ug7TIeuip-Wf-103" value="April 2025 $1.56/Lb" style="text;html=1;align=center;verticalAlign=middle;whiteSpace=wrap;rounded=0;fontSize=17;" parent="1" vertex="1">
          <mxGeometry x="555" y="520" width="160" height="30" as="geometry" />
        </mxCell>
        <mxCell id="HzonHfU0Ug7TIeuip-Wf-104" value="Contact us for a free consultation on your project needs" style="text;html=1;align=center;verticalAlign=middle;whiteSpace=wrap;rounded=0;" parent="1" vertex="1">
          <mxGeometry x="480" y="550" width="330" height="30" as="geometry" />
        </mxCell>
        <mxCell id="HzonHfU0Ug7TIeuip-Wf-105" value="Request a quote" style="text;html=1;align=center;verticalAlign=middle;whiteSpace=wrap;rounded=0;" parent="1" vertex="1">
          <mxGeometry x="585" y="585" width="110" height="30" as="geometry" />
        </mxCell>
        <mxCell id="HzonHfU0Ug7TIeuip-Wf-109" value="" style="rounded=0;whiteSpace=wrap;html=1;" parent="1" vertex="1">
          <mxGeometry x="8" y="640" width="810" height="80" as="geometry" />
        </mxCell>
        <mxCell id="HzonHfU0Ug7TIeuip-Wf-110" value="&lt;h1 style=&quot;margin-top: 0px;&quot;&gt;&lt;br&gt;&lt;/h1&gt;&lt;p&gt;Lorem ipsum dolor sit amet, consectetur adipisicing elit, sed do eiusmod tempor incididunt ut labore et dolore magna aliqua.&lt;/p&gt;" style="text;html=1;whiteSpace=wrap;overflow=hidden;rounded=0;" parent="1" vertex="1">
          <mxGeometry x="10.5" y="620" width="672" height="70" as="geometry" />
        </mxCell>
        <mxCell id="HzonHfU0Ug7TIeuip-Wf-111" value="Our Services" style="text;html=1;align=center;verticalAlign=middle;whiteSpace=wrap;rounded=0;fontSize=24;" parent="1" vertex="1">
          <mxGeometry x="360" y="750" width="160" height="30" as="geometry" />
        </mxCell>
        <mxCell id="HzonHfU0Ug7TIeuip-Wf-112" value="" style="rounded=0;whiteSpace=wrap;html=1;" parent="1" vertex="1">
          <mxGeometry x="40" y="800" width="220" height="120" as="geometry" />
        </mxCell>
        <mxCell id="HzonHfU0Ug7TIeuip-Wf-113" value="" style="rounded=0;whiteSpace=wrap;html=1;" parent="1" vertex="1">
          <mxGeometry x="310" y="800" width="220" height="120" as="geometry" />
        </mxCell>
        <mxCell id="HzonHfU0Ug7TIeuip-Wf-114" value="" style="rounded=0;whiteSpace=wrap;html=1;" parent="1" vertex="1">
          <mxGeometry x="580" y="800" width="220" height="120" as="geometry" />
        </mxCell>
        <mxCell id="HzonHfU0Ug7TIeuip-Wf-115" value="" style="rounded=0;whiteSpace=wrap;html=1;" parent="1" vertex="1">
          <mxGeometry x="312.25" y="970" width="220" height="120" as="geometry" />
        </mxCell>
        <mxCell id="HzonHfU0Ug7TIeuip-Wf-116" value="Extrusions" style="text;html=1;align=center;verticalAlign=middle;whiteSpace=wrap;rounded=0;" parent="1" vertex="1">
          <mxGeometry x="110" y="845" width="60" height="30" as="geometry" />
        </mxCell>
        <mxCell id="HzonHfU0Ug7TIeuip-Wf-117" value="Anodizing" style="text;html=1;align=center;verticalAlign=middle;whiteSpace=wrap;rounded=0;" parent="1" vertex="1">
          <mxGeometry x="392.25" y="845" width="60" height="30" as="geometry" />
        </mxCell>
        <mxCell id="HzonHfU0Ug7TIeuip-Wf-118" value="Finish" style="text;html=1;align=center;verticalAlign=middle;whiteSpace=wrap;rounded=0;" parent="1" vertex="1">
          <mxGeometry x="655" y="850" width="60" height="30" as="geometry" />
        </mxCell>
        <mxCell id="HzonHfU0Ug7TIeuip-Wf-119" value="Fabrication" style="text;html=1;align=center;verticalAlign=middle;whiteSpace=wrap;rounded=0;" parent="1" vertex="1">
          <mxGeometry x="392.25" y="1020" width="60" height="30" as="geometry" />
        </mxCell>
        <mxCell id="HzonHfU0Ug7TIeuip-Wf-120" value="" style="rounded=0;whiteSpace=wrap;html=1;" parent="1" vertex="1">
          <mxGeometry x="28" y="1140" width="770" height="100" as="geometry" />
        </mxCell>
        <mxCell id="HzonHfU0Ug7TIeuip-Wf-121" value="Sioux Extrusions" style="text;html=1;align=center;verticalAlign=middle;whiteSpace=wrap;rounded=0;fontSize=19;" parent="1" vertex="1">
          <mxGeometry x="347" y="1160" width="167" height="30" as="geometry" />
        </mxCell>
        <mxCell id="HzonHfU0Ug7TIeuip-Wf-122" value="" style="strokeColor=#999999;verticalLabelPosition=bottom;shadow=0;dashed=0;verticalAlign=top;strokeWidth=2;html=1;shape=mxgraph.mockup.misc.copyrightIcon;" parent="1" vertex="1">
          <mxGeometry x="356.5" y="1205" width="25" height="25" as="geometry" />
        </mxCell>
        <mxCell id="HzonHfU0Ug7TIeuip-Wf-123" value="2025 Sioux Extrusions" style="text;html=1;align=center;verticalAlign=middle;whiteSpace=wrap;rounded=0;" parent="1" vertex="1">
          <mxGeometry x="370" y="1200" width="159" height="30" as="geometry" />
        </mxCell>
        <mxCell id="HzonHfU0Ug7TIeuip-Wf-124" value="&lt;font style=&quot;font-size: 27px;&quot;&gt;Typography&amp;nbsp;&lt;/font&gt;&lt;div&gt;&lt;font style=&quot;font-size: 27px;&quot;&gt;font-family: &quot;Roboto, Sans-Serif&quot;&lt;/font&gt;&lt;/div&gt;&lt;div&gt;&lt;font style=&quot;font-size: 27px;&quot;&gt;Applied on the body section&lt;/font&gt;&lt;/div&gt;" style="text;html=1;align=center;verticalAlign=middle;whiteSpace=wrap;rounded=0;" parent="1" vertex="1">
          <mxGeometry x="40" y="140" width="140" height="160" as="geometry" />
        </mxCell>
        <mxCell id="HzonHfU0Ug7TIeuip-Wf-125" value="Color Schema:&lt;div&gt;Header and footer Color #333333&lt;/div&gt;&lt;div&gt;Buttons color: #2b00ff&lt;/div&gt;&lt;div&gt;menu links: #7ff0e3&lt;/div&gt;" style="text;html=1;align=center;verticalAlign=middle;whiteSpace=wrap;rounded=0;fontSize=20;" parent="1" vertex="1">
          <mxGeometry x="520" y="90" width="270" height="210" as="geometry" />
        </mxCell>
      </root>
    </mxGraphModel>
  </diagram>
</mxfile>
